<?xml version="1.0" standalone="no"?>
<!DOCTYPE svg PUBLIC "-//W3C//DTD SVG 20010904//EN"
 "http://www.w3.org/TR/2001/REC-SVG-20010904/DTD/svg10.dtd">
<svg version="1.0" xmlns="http://www.w3.org/2000/svg"
 width="260.000000pt" height="260.000000pt" viewBox="0 0 260.000000 260.000000"
 preserveAspectRatio="xMidYMid meet">
<metadata>
Created by potrace 1.14, written by Peter Selinger 2001-2017
</metadata>
<g transform="translate(0.000000,260.000000) scale(0.100000,-0.100000)"
fill="#000000" stroke="none">
<path d="M1170 2594 c-14 -2 -56 -9 -95 -15 -158 -25 -351 -102 -500 -200
-100 -66 -284 -249 -350 -349 -95 -144 -161 -301 -201 -480 -25 -108 -25 -386
-1 -497 60 -275 169 -476 361 -668 194 -193 396 -303 666 -361 119 -26 381
-26 500 0 270 58 473 168 665 361 193 192 302 394 361 665 25 114 25 391 0
500 -61 275 -168 472 -361 666 -190 191 -397 302 -665 360 -71 15 -327 27
-380 18z m-96 -619 l117 -195 -42 -72 c-78 -137 -64 -133 -121 -34 -28 48 -54
84 -59 79 -9 -10 -439 -751 -439 -758 0 -3 157 -5 349 -5 l350 0 55 -98 c31
-54 56 -101 56 -105 0 -4 -265 -7 -590 -7 -324 0 -590 4 -590 8 0 5 49 94 108
198 540 946 677 1184 683 1184 3 0 59 -88 123 -195z m723 -100 l171 -295 -118
0 -117 0 -52 85 c-29 46 -56 87 -60 90 -7 4 -201 -332 -201 -349 0 -4 149 -6
332 -4 l331 3 178 -305 c98 -168 178 -308 179 -312 0 -5 -56 -8 -124 -8 l-124
0 -114 198 -114 197 -325 3 -326 2 -64 112 c-35 61 -65 115 -67 119 -2 4 80
151 181 326 243 419 251 433 257 433 3 0 82 -133 177 -295z m133 -981 c30 -53
57 -100 58 -105 2 -6 -83 -8 -220 -7 l-223 3 -57 95 c-32 52 -58 98 -58 103 0
4 100 7 223 7 l222 0 55 -96z"/>
</g>
</svg>
